<svg width="23" height="23" viewBox="0 0 23 23" fill="none" xmlns="http://www.w3.org/2000/svg">
<path d="M1.18691 11.7257L1.39636 11.5187V22.284C1.39636 22.6981 1.67563 22.9741 2.09454 22.9741H20.2472C20.6662 22.9741 20.9454 22.6981 20.9454 22.284V11.5187L21.1549 11.7257C21.4342 12.0017 21.8531 12.0017 22.1323 11.7257C22.4116 11.4497 22.4116 11.0356 22.1323 10.7596L11.6596 0.408319C11.3803 0.132285 10.9614 0.132285 10.6822 0.408319C6.98181 4.06577 4.32872 6.68809 0.209454 10.7596C-0.0698181 11.0356 -0.0698181 11.4497 0.209454 11.7257C0.488727 12.0017 0.907635 12.0017 1.18691 11.7257ZM13.2654 21.5939H9.07635V14.6931H13.2654V21.5939ZM11.1709 1.8575L12.9862 3.65172H9.42544L11.1709 1.8575ZM7.95926 5.03189H14.3127L16.4073 7.10214H5.86472L7.95926 5.03189ZM2.79272 10.1385L4.46836 8.48231H17.8734L19.5491 10.1385V10.5526H2.79272V10.1385ZM2.79272 11.9327H19.5491V21.5939H14.6618V14.003C14.6618 13.5889 14.3825 13.3129 13.9636 13.3129H8.37817C7.95926 13.3129 7.67999 13.5889 7.67999 14.003V21.5939H2.79272V11.9327Z" fill="black"/>
</svg>
