<svg width="19" height="19" viewBox="0 0 19 19" fill="none" xmlns="http://www.w3.org/2000/svg">
<path d="M13.3912 4.1469C13.4871 3.79942 13.2954 3.45194 12.9758 3.32558C12.6242 3.23081 12.2726 3.42035 12.1448 3.73624C11.953 4.36803 11.2499 6.16863 10.4509 6.95836L7.06316 10.3384V6.01068C7.06316 5.6632 6.77552 5.37889 6.42396 5.37889C6.0724 5.37889 5.78476 5.6632 5.78476 6.01068V11.1597C5.78476 11.2861 5.81672 11.4125 5.88064 11.5072L0.19176 17.1301C-0.06392 17.3829 -0.06392 17.7935 0.19176 18.0462C0.3196 18.1726 0.4794 18.2358 0.6392 18.2358C0.799 18.2358 0.9588 18.1726 1.08664 18.0462L11.3458 7.90604C12.5603 6.70565 13.3593 4.24167 13.3912 4.1469Z" fill="black"/>
<path d="M18.3456 2.28313C18.3136 1.93564 17.994 1.65134 17.6425 1.68293C17.2909 1.71452 17.0033 2.03041 17.0352 2.3779C17.2909 5.28412 17.259 10.6543 14.1269 13.7501C10.3236 17.5092 7.76685 16.6247 5.94513 15.3927C5.65749 15.2032 5.24201 15.2664 5.05025 15.5823C4.85849 15.8666 4.92241 16.2772 5.24201 16.4668C6.48845 17.3197 7.76685 17.7303 9.01329 17.7303C10.9948 17.7303 13.0083 16.7195 15.0537 14.6662C18.5693 11.2229 18.6332 5.41048 18.3456 2.28313Z" fill="black"/>
<path d="M1.91823 13.1499C2.04607 13.1499 2.17391 13.1183 2.26979 13.0551C2.55743 12.8656 2.65331 12.4549 2.46155 12.1706C1.31099 10.4332 0.480034 7.93761 4.25131 4.24165C7.19163 1.33543 12.3052 1.14589 15.0538 1.33543C15.4054 1.36702 15.725 1.08271 15.7569 0.735231C15.7889 0.387748 15.5012 0.071854 15.1497 0.0402646C12.1774 -0.117682 6.64831 0.0402652 3.32447 3.32556C-0.0313267 6.64245 -0.670527 9.73821 1.34295 12.8656C1.47079 13.0551 1.69451 13.1499 1.91823 13.1499Z" fill="black"/>
<path d="M11.5376 9.16962C11.1861 9.16962 10.8984 9.45392 10.8984 9.8014C10.8984 10.1489 11.1861 10.4332 11.5376 10.4332H14.6697C15.0213 10.4332 15.3089 10.1489 15.3089 9.8014C15.3089 9.45392 15.0213 9.16962 14.6697 9.16962H11.5376Z" fill="black"/>
</svg>
