<svg width="21" height="15" viewBox="0 0 21 15" fill="none" xmlns="http://www.w3.org/2000/svg">
<path d="M19.5252 4.38705H19.0653C19.0537 3.62461 18.8281 2.88034 18.4136 2.23721C17.9991 1.59407 17.4121 1.07734 16.718 0.744607C16.0238 0.411877 15.2498 0.276224 14.4822 0.352768C13.7146 0.429312 12.9836 0.715046 12.3707 1.17812C11.6173 0.624341 10.6966 0.338475 9.75811 0.366911C8.81963 0.395347 7.9184 0.736417 7.20069 1.33477C6.60945 1.02295 5.9509 0.856499 5.28079 0.849517C4.61067 0.842535 3.94872 0.995224 3.35096 1.29466C2.7532 1.5941 2.23721 2.03147 1.84669 2.56975C1.45616 3.10803 1.20259 3.73139 1.10742 4.38705H0.603459C0.445103 4.38564 0.292643 4.44635 0.179516 4.55589C0.0663887 4.66542 0.00183054 4.81483 4.20613e-08 4.97135C-0.000180156 6.91676 0.578646 8.81924 1.6644 10.4419C2.75015 12.0645 4.29485 13.3356 6.10614 14.0968C6.18259 14.1292 6.26488 14.1458 6.34803 14.1458H13.7812C13.8641 14.1457 13.9462 14.1292 14.0225 14.0971C15.8339 13.3358 17.3786 12.0647 18.4644 10.442C19.5501 8.81932 20.129 6.9168 20.1288 4.97135C20.1269 4.81481 20.0624 4.66539 19.9492 4.55586C19.8361 4.44632 19.6836 4.38561 19.5252 4.38705ZM18.9023 5.55553C18.8021 7.14999 18.2592 8.6863 17.3332 9.99564C16.4072 11.305 15.1339 12.3367 13.6533 12.9774H6.47591C4.9952 12.3368 3.72182 11.3051 2.79573 9.99578C1.86964 8.68642 1.32669 7.15005 1.22655 5.55553H18.9023ZM17.9296 4.38705H11.8566C11.875 3.60311 12.203 2.85738 12.7705 2.30936C13.3379 1.76134 14.0998 1.45452 14.8931 1.45452C15.6865 1.45452 16.4484 1.76134 17.0158 2.30936C17.5833 2.85738 17.9112 3.60311 17.9296 4.38705H17.9296ZM8.91447 1.64569C9.35228 1.49966 9.81805 1.45439 10.2762 1.51335C10.7344 1.57231 11.173 1.73393 11.5583 1.98588C11.029 2.67844 10.7358 3.51921 10.7209 4.38705H6.84636C6.86807 3.77644 7.07768 3.18689 7.4472 2.69708C7.81672 2.20727 8.32858 1.84049 8.91448 1.6457L8.91447 1.64569ZM5.23617 1.97183C5.63855 1.97203 6.03688 2.05122 6.40805 2.20479C5.97127 2.85234 5.72918 3.60902 5.70987 4.38705H2.25502C2.39382 3.70638 2.76645 3.09407 3.30976 2.65389C3.85308 2.21372 4.53366 1.97275 5.23617 1.97183Z" fill="black"/>
</svg>
