<svg width="26" height="18" viewBox="0 0 26 18" fill="none" xmlns="http://www.w3.org/2000/svg">
<path d="M25.5546 15.3584H23.8046C23.5588 15.3584 23.3596 15.1615 23.3596 14.9185C23.3596 14.6756 23.5588 14.4787 23.8046 14.4787H25.1096V3.7483C25.1096 2.62486 24.1848 1.71076 23.0479 1.71076H1.33487C1.08961 1.71076 0.890083 1.90797 0.890083 2.15038V14.4787H2.19506C2.44083 14.4787 2.6401 14.6756 2.6401 14.9185C2.6401 15.1615 2.44083 15.3584 2.19506 15.3584H0.445042C0.199272 15.3584 0 15.1615 0 14.9185V2.15038C0 1.42289 0.59884 0.830994 1.33487 0.830994H23.0479C24.6753 0.830994 25.9997 2.13978 25.9997 3.7483V14.9185C25.9997 15.1615 25.8004 15.3584 25.5546 15.3584ZM19.3547 15.3584H6.64446C6.39869 15.3584 6.19942 15.1615 6.19942 14.9185C6.19942 14.6756 6.39869 14.4787 6.64446 14.4787H19.3547C19.6005 14.4787 19.7998 14.6756 19.7998 14.9185C19.7998 15.1615 19.6005 15.3584 19.3547 15.3584Z" fill="black"/>
<path d="M25.5546 4.18814H0.445042C0.199272 4.18814 0 3.99118 0 3.74826C0 3.50534 0.199272 3.30838 0.445042 3.30838H25.5546C25.8004 3.30838 25.9997 3.50534 25.9997 3.74826C25.9997 3.99118 25.8004 4.18814 25.5546 4.18814Z" fill="black"/>
<path d="M4.41974 17.5573C2.94768 17.5573 1.75 16.3736 1.75 14.9186C1.75 13.4636 2.94768 12.2798 4.41974 12.2798C5.8918 12.2798 7.08948 13.4636 7.08948 14.9186C7.08948 16.3736 5.8918 17.5573 4.41974 17.5573ZM4.41974 13.1595C3.43845 13.1595 2.64008 13.9484 2.64008 14.9186C2.64008 15.8887 3.43845 16.6776 4.41974 16.6776C5.40103 16.6776 6.19939 15.8887 6.19939 14.9186C6.1994 13.9484 5.40103 13.1595 4.41974 13.1595Z" fill="black"/>
<path d="M21.5804 17.5573C20.1078 17.5573 18.9102 16.3736 18.9102 14.9186C18.9102 13.4636 20.1078 12.2798 21.5804 12.2798C23.0525 12.2798 24.2501 13.4636 24.2501 14.9186C24.2501 16.3736 23.0525 17.5573 21.5804 17.5573ZM21.5804 13.1595C20.5989 13.1595 19.8002 13.9484 19.8002 14.9186C19.8002 15.8887 20.5989 16.6776 21.5804 16.6776C22.562 16.6776 23.3601 15.8887 23.3601 14.9186C23.3601 13.9484 22.5619 13.1595 21.5804 13.1595Z" fill="black"/>
<path d="M19.1769 8.98193H0.445042C0.199272 8.98193 0 8.78497 0 8.54205C0 8.29913 0.199272 8.10217 0.445042 8.10217H19.1769C19.4227 8.10217 19.6219 8.29913 19.6219 8.54205C19.6219 8.78497 19.4227 8.98193 19.1769 8.98193Z" fill="black"/>
<path d="M25.5545 12.4413H24.3532C24.1075 12.4413 23.9082 12.2444 23.9082 12.0015C23.9082 11.7585 24.1075 11.5616 24.3532 11.5616H25.5545C25.8003 11.5616 25.9995 11.7585 25.9995 12.0015C25.9995 12.2444 25.8003 12.4413 25.5545 12.4413Z" fill="black"/>
<path d="M25.5543 10.3889H21.6388C21.5607 10.3889 21.484 10.3682 21.4161 10.3298L18.9538 8.92282C18.7412 8.80111 18.6682 8.53218 18.7913 8.32184C18.9139 8.112 19.1873 8.04028 19.3993 8.16124L21.7584 9.50916H25.5543C25.8001 9.50916 25.9993 9.70612 25.9993 9.94904C25.9993 10.192 25.8001 10.3889 25.5543 10.3889Z" fill="black"/>
<path d="M19.1775 8.98188C18.9317 8.98188 18.7324 8.78492 18.7324 8.542V3.74826C18.7324 3.50534 18.9317 3.30838 19.1775 3.30838C19.4232 3.30838 19.6225 3.50534 19.6225 3.74826V8.542C19.6225 8.78492 19.4232 8.98188 19.1775 8.98188Z" fill="black"/>
<path d="M6.45188 8.98188C6.20611 8.98188 6.00684 8.78492 6.00684 8.542V3.74826C6.00684 3.50534 6.20611 3.30838 6.45188 3.30838C6.69765 3.30838 6.89692 3.50534 6.89692 3.74826V8.542C6.89692 8.78492 6.69765 8.98188 6.45188 8.98188Z" fill="black"/>
<path d="M13.156 8.98188C12.9102 8.98188 12.7109 8.78492 12.7109 8.542V3.74826C12.7109 3.50534 12.9102 3.30838 13.156 3.30838C13.4017 3.30838 13.6008 3.50534 13.6008 3.74826V8.542C13.6008 8.78492 13.4017 8.98188 13.156 8.98188Z" fill="black"/>
<path d="M17.5013 13.3358H8.49875C8.25298 13.3358 8.05371 13.1388 8.05371 12.8959C8.05371 12.653 8.25298 12.456 8.49875 12.456H17.5013C17.747 12.456 17.9463 12.653 17.9463 12.8959C17.9463 13.1388 17.747 13.3358 17.5013 13.3358Z" fill="black"/>
</svg>
